name C:\Users\antoi\Documents\MyRepositories\upper-imu-dc\Results\main_tracking\Case_78\kinematics.mot
datacolumns 10
datarows 18
range 3.45000000 3.62000000
endheader 
time	clav_prot	clav_elev	scapula_abduction	scapula_elevation	scapula_upward_rot	scapula_winging	plane_elv	shoulder_elv	axial_rot	
          3.45000000	        -48.19973686	        -10.09277565	        -14.62850251	        -16.54084723	         66.51214931	         -5.26372568	         53.33988888	        101.80700011	        -13.46864369	
          3.46000000	        -48.18339374	        -10.07170398	        -14.61052258	        -16.52470449	         66.50645740	         -5.27176853	         53.36989757	        101.78951822	        -13.39433199	
          3.47000000	        -48.16601467	        -10.04986999	        -14.59325070	        -16.50801294	         66.49782256	         -5.27989121	         53.40149093	        101.77322273	        -13.32028489	
          3.48000000	        -48.14765063	        -10.02730195	        -14.57685714	        -16.49079867	         66.48611712	         -5.28810190	         53.43420693	        101.75814215	        -13.24667440	
          3.49000000	        -48.12835497	        -10.00404496	        -14.56150864	        -16.47309982	         66.47121991	         -5.29639595	         53.46759407	        101.74431615	        -13.17368278	
          3.50000000	        -48.10818389	         -9.98015629	        -14.54736310	        -16.45496295	         66.45302533	         -5.30475982	         53.50122240	        101.73179256	        -13.10149237	
          3.51000000	        -48.08720033	         -9.95569779	        -14.53457085	        -16.43643763	         66.43145111	         -5.31317959	         53.53470244	        101.72062280	        -13.03027697	
          3.52000000	        -48.06546936	         -9.93073109	        -14.52326716	        -16.41757263	         66.40643966	         -5.32164209	         53.56769374	        101.71086599	        -12.96018716	
          3.53000000	        -48.04305525	         -9.90531738	        -14.51356509	        -16.39841550	         66.37796164	         -5.33013337	         53.59990948	        101.70258864	        -12.89134082	
          3.54000000	        -48.02002520	         -9.87951898	        -14.50556155	        -16.37901398	         66.34601525	         -5.33863957	         53.63112735	        101.69586572	        -12.82382209	
          3.55000000	        -47.99644778	         -9.85338539	        -14.49933284	        -16.35940569	         66.31063162	         -5.34715742	         53.66119239	        101.69077368	        -12.75768939	
          3.56000000	        -47.97238983	         -9.82693916	        -14.49493007	        -16.33960772	         66.27187717	         -5.35570397	         53.69001584	        101.68738355	        -12.69297936	
          3.57000000	        -47.94791135	         -9.80018247	        -14.49237469	        -16.31962121	         66.22984781	         -5.36430824	         53.71756909	        101.68576242	        -12.62971177	
          3.58000000	        -47.92305636	         -9.77309988	        -14.49165107	        -16.29943308	         66.18465951	         -5.37300382	         53.74387486	        101.68597502	        -12.56790522	
          3.59000000	        -47.89784083	         -9.74566194	        -14.49269034	        -16.27901801	         66.13644425	         -5.38181893	         53.76899067	        101.68807983	        -12.50759413	
          3.60000000	        -47.87224452	         -9.71782684	        -14.49536403	        -16.25833937	         66.08534145	         -5.39077054	         53.79299828	        101.69212648	        -12.44885275	
          3.61000000	        -47.84620662	         -9.68954071	        -14.49948596	        -16.23734942	         66.03148627	         -5.39986186	         53.81599901	        101.69815466	        -12.39180446	
          3.62000000	        -47.81963261	         -9.66074066	        -14.50482227	        -16.21599192	         65.97500987	         -5.40908389	         53.83811407	        101.70617951	        -12.33662075	
